<svg xmlns="http://www.w3.org/2000/svg" width="1200" height="675" viewBox="0 0 1200 675" role="img" aria-labelledby="title desc">
  <title id="title">机器学习基础：监督学习与无监督学习</title>
  <desc id="desc">A split diagram contrasts labeled supervised learning with unlabeled unsupervised learning.</desc>
  <rect width="1200" height="675" fill="#17242A"/>
  <rect width="600" height="675" fill="#17313A"/>
  <rect x="600" width="600" height="675" fill="#262A34"/>
  <rect width="1200" height="84" fill="#F4C95D"/>
  <rect y="84" width="1200" height="8" fill="#E96B5C"/>
  <text x="72" y="58" fill="#17242A" font-family="Inter, PingFang SC, Microsoft YaHei, sans-serif" font-size="28" font-weight="800">MACHINE LEARNING · COURSERA NOTES</text>

  <text x="72" y="175" fill="#FFFFFF" font-family="Inter, PingFang SC, Microsoft YaHei, sans-serif" font-size="48" font-weight="800">监督学习</text>
  <text x="72" y="218" fill="#75D5C3" font-family="Inter, PingFang SC, Microsoft YaHei, sans-serif" font-size="23" font-weight="700">LABELED DATA</text>
  <rect x="72" y="266" width="150" height="68" fill="#244954" stroke="#75D5C3" stroke-width="2"/>
  <rect x="376" y="266" width="150" height="68" fill="#244954" stroke="#F4C95D" stroke-width="2"/>
  <text x="132" y="309" fill="#FFFFFF" font-family="Inter, PingFang SC, Microsoft YaHei, sans-serif" font-size="27" font-weight="700">x, y</text>
  <text x="423" y="309" fill="#FFFFFF" font-family="Inter, PingFang SC, Microsoft YaHei, sans-serif" font-size="27" font-weight="700">ŷ</text>
  <path d="M240 300h112" stroke="#F4C95D" stroke-width="5"/>
  <path d="M335 286l17 14-17 14" fill="none" stroke="#F4C95D" stroke-width="5" stroke-linecap="round" stroke-linejoin="round"/>
  <circle cx="128" cy="414" r="15" fill="#75D5C3"/>
  <circle cx="187" cy="449" r="15" fill="#75D5C3"/>
  <circle cx="243" cy="399" r="15" fill="#75D5C3"/>
  <path d="M100 486c80-95 195-85 376-36" fill="none" stroke="#E96B5C" stroke-width="6"/>
  <path d="M386 401l24 24m0-24-24 24M448 442l24 24m0-24-24 24" stroke="#F4C95D" stroke-width="6" stroke-linecap="round"/>
  <text x="72" y="572" fill="#DCE9E7" font-family="Inter, PingFang SC, Microsoft YaHei, sans-serif" font-size="25" font-weight="600">回归 · 分类 · 决策边界</text>

  <text x="672" y="175" fill="#FFFFFF" font-family="Inter, PingFang SC, Microsoft YaHei, sans-serif" font-size="48" font-weight="800">无监督学习</text>
  <text x="672" y="218" fill="#E96B5C" font-family="Inter, PingFang SC, Microsoft YaHei, sans-serif" font-size="23" font-weight="700">UNLABELED DATA</text>
  <circle cx="726" cy="321" r="16" fill="#75D5C3"/>
  <circle cx="769" cy="288" r="13" fill="#75D5C3"/>
  <circle cx="800" cy="340" r="17" fill="#75D5C3"/>
  <circle cx="748" cy="365" r="12" fill="#75D5C3"/>
  <circle cx="959" cy="303" r="15" fill="#F4C95D"/>
  <circle cx="1003" cy="339" r="17" fill="#F4C95D"/>
  <circle cx="1052" cy="292" r="13" fill="#F4C95D"/>
  <circle cx="1040" cy="365" r="15" fill="#F4C95D"/>
  <ellipse cx="765" cy="329" rx="91" ry="73" fill="none" stroke="#75D5C3" stroke-width="3" stroke-dasharray="8 8"/>
  <ellipse cx="1013" cy="329" rx="93" ry="73" fill="none" stroke="#F4C95D" stroke-width="3" stroke-dasharray="8 8"/>
  <path d="M884 263v202" stroke="#E96B5C" stroke-width="4" stroke-dasharray="10 10"/>
  <text x="672" y="510" fill="#FFFFFF" font-family="Inter, PingFang SC, Microsoft YaHei, sans-serif" font-size="31" font-weight="800">发现数据中的结构</text>
  <text x="672" y="572" fill="#D7D9E0" font-family="Inter, PingFang SC, Microsoft YaHei, sans-serif" font-size="25" font-weight="600">聚类 · 异常检测 · 降维</text>
  <text x="72" y="638" fill="#F4C95D" font-family="Inter, PingFang SC, Microsoft YaHei, sans-serif" font-size="22" font-weight="800">JASPER SAO</text>
</svg>
